<svg xmlns="http://www.w3.org/2000/svg" xmlns:xlink="http://www.w3.org/1999/xlink" width="500" height="500" viewBox="0 0 500 500"><defs><clipPath id="b"><rect width="500" height="500"/></clipPath></defs><g id="a" clip-path="url(#b)"><rect width="500" height="500" fill="#fff"/><g transform="translate(-63.56 -63.469)"><g transform="translate(-19.752 -19.752)"><path d="M42.907,443.246V110.026H709.531V776.469H42.907Zm583.3,0V193.331H126.234V693.163H626.2Z" transform="translate(-42.907 -110.026)" fill="#fff"/><path d="M107.581,273.314V245.842h55.987v54.943H107.581Zm335.924,0V245.842h55.987v54.943H443.505Z" transform="translate(29.775 46.01)" fill="#fefefe"/><path d="M146.386,417.3V389.473h55.881V333.826H146.386V278.179H369.911v55.647H314.029v55.647H369.91V445.12H146.386Z" transform="translate(75.217 82.886)" fill="#feccd1"/><path d="M81.711,532.008V413.571h111.51V357.837H81.711V148.83h111.51V260.3h55.755V148.83h334.53V357.836H472v55.735h111.51V650.445H81.711Zm362.408-20.9V427.505H221.1v167.2H444.12Z" transform="translate(0.702 -66.417)" fill="#e99"/><path d="M158.357,507.448V478.409h57.906v56.625H158.357Zm167.19,0V477.872h56.32v57.161h-56.32ZM129.225,205.028V144.844h59.438V260.833H161.254l-32.03-.862Z" transform="translate(63.261 -62.417)" fill="#e47272"/><path d="M81.711,273.314V245.842h55.755v54.943H81.711Zm446.041,0V245.842h55.755v54.943H527.752Z" transform="translate(0.702 46.01)" fill="#253137"/></g></g></g></svg>