<?xml version="1.0" encoding="UTF-8" standalone="no"?>
<svg
   xmlns:dc="http://purl.org/dc/elements/1.1/"
   xmlns:cc="http://creativecommons.org/ns#"
   xmlns:rdf="http://www.w3.org/1999/02/22-rdf-syntax-ns#"
   xmlns:svg="http://www.w3.org/2000/svg"
   xmlns="http://www.w3.org/2000/svg"
   xmlns:sodipodi="http://sodipodi.sourceforge.net/DTD/sodipodi-0.dtd"
   xmlns:inkscape="http://www.inkscape.org/namespaces/inkscape"
   width="1024"
   height="1024"
   viewBox="0 0 270.93333 270.93334"
   version="1.1"
   id="svg8"
   inkscape:version="1.0.2-2 (e86c870879, 2021-01-15)"
   sodipodi:docname="output-inkscape.svg"
   inkscape:export-filename="D:\Github\TexturePig\src\TexturePig.Render\icon\output.png"
   inkscape:export-xdpi="2048"
   inkscape:export-ydpi="2048">
  <defs
     id="defs2" />
  <sodipodi:namedview
     id="base"
     pagecolor="#ffffff"
     bordercolor="#666666"
     borderopacity="1.0"
     inkscape:pageopacity="0.0"
     inkscape:pageshadow="2"
     inkscape:zoom="0.49497475"
     inkscape:cx="409.09059"
     inkscape:cy="598.04689"
     inkscape:document-units="mm"
     inkscape:current-layer="layer1"
     inkscape:document-rotation="0"
     showgrid="false"
     inkscape:window-width="1267"
     inkscape:window-height="1041"
     inkscape:window-x="78"
     inkscape:window-y="0"
     inkscape:window-maximized="0"
     units="px" />
  <metadata
     id="metadata5">
    <rdf:RDF>
      <cc:Work
         rdf:about="">
        <dc:format>image/svg+xml</dc:format>
        <dc:type
           rdf:resource="http://purl.org/dc/dcmitype/StillImage" />
        <dc:title></dc:title>
      </cc:Work>
    </rdf:RDF>
  </metadata>
  <g
     inkscape:label="Layer 1"
     inkscape:groupmode="layer"
     id="layer1">
    <g
       id="g851"
       transform="matrix(2.6307397,0,0,2.6307397,-62.658964,-129.77805)">
      <path
         style="fill:#ffffff;stroke-width:1.22921"
         d="M 16.309685,100.82516 V 41.823062 h 59.002074 59.002071 v 59.002098 59.00207 H 75.311759 16.309685 Z m 103.253625,0 V 56.57358 H 75.311759 31.060203 v 44.25158 44.25151 h 44.251556 44.251551 z"
         id="path863" />
      <path
         style="fill:#fefefe;stroke-width:1.22921"
         d="m 40.893884,98.366724 v -4.916847 h 4.916838 4.916838 v 4.916847 4.916826 h -4.916838 -4.916838 z m 59.002074,0 v -4.916847 h 4.916842 4.91683 v 4.916847 4.916826 h -4.91683 -4.916842 z"
         id="path861" />
      <path
         style="fill:#feccd1;stroke-width:1.22921"
         d="m 55.644402,130.3262 v -4.91687 h 4.916838 4.916838 v -4.91683 -4.91682 H 60.56124 55.644402 v -4.91687 -4.91683 h 19.667357 19.667357 v 4.91683 4.91687 H 90.062278 85.14544 v 4.91682 4.91683 h 4.916838 4.916838 v 4.91687 4.91682 H 75.311759 55.644402 Z"
         id="path859" />
      <path
         style="fill:#ee9999;stroke-width:1.22921"
         d="m 31.060203,124.18013 v -20.89658 h 9.833681 9.833676 V 98.366724 93.449877 H 40.893884 31.060203 V 75.011728 56.57358 h 9.833681 9.833676 v 9.833681 9.833676 h 4.916842 4.916838 V 66.407261 56.57358 h 29.501038 29.501032 v 18.438148 18.438149 h -9.83368 -9.833672 v 4.916847 4.916826 h 9.833672 9.83368 v 20.89658 20.89654 H 75.311759 31.060203 Z M 94.979116,120.4925 V 105.74198 H 75.311759 55.644402 v 14.75052 14.75052 h 19.667357 19.667357 z"
         id="path857" />
      <path
         style="fill:#e47272;stroke-width:1.22921"
         d="m 55.644402,120.4925 v -4.91682 h 4.916838 4.916838 v 4.91682 4.91683 H 60.56124 55.644402 Z m 29.501038,0 v -4.91682 h 4.916838 4.916838 v 4.91682 4.91683 H 90.062278 85.14544 Z M 50.72756,66.407261 V 56.57358 h 4.916842 4.916838 v 9.833681 9.833676 H 55.644402 50.72756 Z"
         id="path855" />
      <path
         style="fill:#253137;stroke-width:1.22921"
         d="m 31.060203,98.366724 v -4.916847 h 4.916838 4.916843 v 4.916847 4.916826 h -4.916843 -4.916838 z m 78.669427,0 v -4.916847 h 4.91685 4.91683 v 4.916847 4.916826 h -4.91683 -4.91685 z"
         id="path853" />
    </g>
  </g>
</svg>
