<svg xmlns="http://www.w3.org/2000/svg" xmlns:svg="http://www.w3.org/2000/svg" id="svg8" width="1024" height="1024" version="1.1" viewBox="0 0 270.933 270.933"><metadata id="metadata5"/><g id="layer1"><g id="g851" transform="matrix(2.6307397,0,0,2.6307397,-62.658964,-129.77805)"><path style="fill:#fff;stroke-width:1.22921" id="path863" d="M 16.309685,100.82516 V 41.823062 h 59.002074 59.002071 v 59.002098 59.00207 H 75.311759 16.309685 Z m 103.253625,0 V 56.57358 H 75.311759 31.060203 v 44.25158 44.25151 h 44.251556 44.251551 z"/><path style="fill:#fefefe;stroke-width:1.22921" id="path861" d="m 40.893884,98.366724 v -4.916847 h 4.916838 4.916838 v 4.916847 4.916826 h -4.916838 -4.916838 z m 59.002074,0 v -4.916847 h 4.916842 4.91683 v 4.916847 4.916826 h -4.91683 -4.916842 z"/><path style="fill:#feccd1;stroke-width:1.22921" id="path859" d="m 55.644402,130.3262 v -4.91687 h 4.916838 4.916838 v -4.91683 -4.91682 H 60.56124 55.644402 v -4.91687 -4.91683 h 19.667357 19.667357 v 4.91683 4.91687 H 90.062278 85.14544 v 4.91682 4.91683 h 4.916838 4.916838 v 4.91687 4.91682 H 75.311759 55.644402 Z"/><path style="fill:#e99;stroke-width:1.22921" id="path857" d="m 31.060203,124.18013 v -20.89658 h 9.833681 9.833676 V 98.366724 93.449877 H 40.893884 31.060203 V 75.011728 56.57358 h 9.833681 9.833676 v 9.833681 9.833676 h 4.916842 4.916838 V 66.407261 56.57358 h 29.501038 29.501032 v 18.438148 18.438149 h -9.83368 -9.833672 v 4.916847 4.916826 h 9.833672 9.83368 v 20.89658 20.89654 H 75.311759 31.060203 Z M 94.979116,120.4925 V 105.74198 H 75.311759 55.644402 v 14.75052 14.75052 h 19.667357 19.667357 z"/><path style="fill:#e47272;stroke-width:1.22921" id="path855" d="m 55.644402,120.4925 v -4.91682 h 4.916838 4.916838 v 4.91682 4.91683 H 60.56124 55.644402 Z m 29.501038,0 v -4.91682 h 4.916838 4.916838 v 4.91682 4.91683 H 90.062278 85.14544 Z M 50.72756,66.407261 V 56.57358 h 4.916842 4.916838 v 9.833681 9.833676 H 55.644402 50.72756 Z"/><path style="fill:#253137;stroke-width:1.22921" id="path853" d="m 31.060203,98.366724 v -4.916847 h 4.916838 4.916843 v 4.916847 4.916826 h -4.916843 -4.916838 z m 78.669427,0 v -4.916847 h 4.91685 4.91683 v 4.916847 4.916826 h -4.91683 -4.91685 z"/></g></g></svg>